# xmcd
#
# Track frame offsets: 
#        150
#        18837
#        48643
#        77256
#        112723
#        133304
#        162078
#        192613
#
# Disc length: 2893 seconds
#
# Revision: 0
# Processed by: cddbd v1.5.2PL0 Copyright (c) Steve Scherf et al.
# Submitted via: ExactAudioCopy v0.99pb4
#
DISCID=5d0b4b08
DTITLE=Tope Alabi - Angeli Mi
DYEAR=1900
DGENRE=Gospel
TTITLE0=Mimo L'Oluwa
TTITLE1=E Gbe Ga
TTITLE2=Jesu Oluparada
TTITLE3=Angeli Mi
TTITLE4=Olorun Gbangba
TTITLE5=Igbati Mo Ro O
TTITLE6=Wa Beru Re Ni Bode
TTITLE7=Opin Irin Ajo
EXTD=
EXTT0=
EXTT1=
EXTT2=
EXTT3=
EXTT4=
EXTT5=
EXTT6=
EXTT7=
PLAYORDER=
